<?xml version="1.0" encoding="UTF-8"?>
<svg id="Ebene_2" data-name="Ebene 2" xmlns="http://www.w3.org/2000/svg" viewBox="0 0 45.9 45.9">
  <defs>
    <style>
      .cls-1 {
        fill: #fcfaf8;
      }
    </style>
  </defs>
  <g id="Ebene_1-2" data-name="Ebene 1">
    <path class="cls-1" d="M27.19,22.95L45.02,5.12c1.17-1.17,1.17-3.07,0-4.24-1.17-1.17-3.07-1.17-4.24,0l-17.83,17.83L5.12.88C3.95-.29,2.05-.29.88.88-.29,2.05-.29,3.95.88,5.12l17.83,17.83L.88,40.78c-1.17,1.17-1.17,3.07,0,4.24.59.59,1.35.88,2.12.88s1.54-.29,2.12-.88l17.83-17.83,17.83,17.83c.59.59,1.35.88,2.12.88s1.54-.29,2.12-.88c1.17-1.17,1.17-3.07,0-4.24l-17.83-17.83Z"/>
  </g>
</svg>