<?xml version="1.0" encoding="UTF-8"?>
<svg id="Ebene_2" data-name="Ebene 2" xmlns="http://www.w3.org/2000/svg" viewBox="0 0 68.09 58.52">
  <defs>
    <style>
      .cls-1 {
        fill: #fcfaf8;
      }
    </style>
  </defs>
  <g id="Ebene_1-2" data-name="Ebene 1">
    <path class="cls-1" d="M63.63,30.9c-2.97-2.82-7.48-4.68-13.52-5.55-9.21-1.22-13.81-4.68-13.81-10.37,0-3.07,1.14-5.43,3.43-7.09,2.29-1.66,5.41-2.48,9.35-2.48,5.5.05,9.62,2.22,12.35,6.5.29.49.67.87,1.13,1.13.46.27.96.4,1.5.4.49,0,.92-.1,1.31-.29.88-.54,1.32-1.27,1.32-2.19,0-.63-.17-1.22-.51-1.75-1.66-2.73-3.94-4.94-6.87-6.65-2.92-1.7-6.31-2.56-10.16-2.56-3.56,0-6.73.6-9.53,1.79-2.8,1.19-4.99,2.9-6.58,5.11-1.58,2.22-2.37,4.79-2.37,7.71,0,4.14,1.62,7.63,4.86,10.48,3.24,2.85,7.68,4.62,13.33,5.3,4.53.58,7.93,1.92,10.19,4.02,2.26,2.09,3.4,4.68,3.4,7.74,0,3.46-1.22,6.15-3.65,8.07-2.44,1.92-5.65,2.89-9.64,2.89-3.46,0-6.49-.67-9.1-2.01-2.61-1.34-4.47-3.1-5.59-5.3-.24-.58-.62-1.03-1.13-1.35-.51-.32-1.06-.48-1.64-.48-.88,0-1.57.23-2.08.69-.51.46-.77,1.04-.77,1.72,0,.44.1.83.29,1.17.35.76.76,1.49,1.22,2.18.75,1.13-.05,2.64-1.41,2.64H7.4c-.94,0-1.7-.76-1.7-1.7V3.58c0-.83-.27-1.51-.8-2.05-.54-.54-1.22-.8-2.05-.8-.78,0-1.45.28-2.01.84s-.84,1.23-.84,2.01v51.36c0,.78.28,1.45.84,2.01.56.56,1.23.84,2.01.84h31.42c.83,0,1.51-.26,2.05-.77.08-.08.16-.16.23-.25.46-.57,1.27-.71,1.94-.41,3.18,1.43,6.74,2.16,10.69,2.16,3.55,0,6.77-.65,9.64-1.94,2.87-1.29,5.14-3.18,6.79-5.66,1.66-2.48,2.48-5.43,2.48-8.84,0-4.63-1.49-8.35-4.46-11.18Z"/>
  </g>
</svg>